<?xml version="1.0" encoding="UTF-8"?>
<svg width="163px" height="158px" viewBox="0 0 163 158" version="1.1" xmlns="http://www.w3.org/2000/svg" xmlns:xlink="http://www.w3.org/1999/xlink">
    <title>DATAHUB</title>
    <g id="DESKTOP" stroke="none" stroke-width="1" fill="none" fill-rule="evenodd">
        <g id="DATAHUB_LANDING" transform="translate(-584.000000, -2579.000000)" fill-rule="nonzero">
            <g id="DATAHUB" transform="translate(584.000000, 2579.000000)">
                <path d="M48.5703303,137.943711 L133.105086,127.140426 C131.544897,128.733628 136.58362,123.688489 139.954217,118.962973 L39.9353233,131.743009 C43.1734509,134.467188 49.163987,138.302673 48.5703303,137.938794 L48.5703303,137.943711 Z" id="Path" fill="#FFFFFF"></path>
                <path d="M32.7770988,124.789961 L145.154846,110.426558 C148.196723,104.511059 150.409444,98.0989131 151.636007,91.3474743 L21.7085898,107.953162 C24.5689359,114.114526 28.3173139,119.779243 32.7770988,124.789961 Z" id="Path" fill="#FFFFFF"></path>
                <path d="M67.7586895,68.0739423 C97.5396511,91.5244967 101.175185,94.873171 125.068642,61.2438269 C127.575738,59.1441442 149.344787,57.5706115 149.349693,57.5706115 C148.128036,53.8088849 145.145033,47.4606639 145.34619,47.8638817 C110.472537,54.9742825 127.879926,44.5397938 95.8518997,44.6034259 C75.9864774,46.1575821 70.7515045,55.7315452 65.3595313,58.5245657 C63.8042488,59.3310012 16.8906484,64.2876292 16.8857422,64.2876292 C16.1448978,67.7051455 15.6640849,71.176752 15.4482098,74.6876969 C15.4482098,74.6876969 65.2466875,66.9921385 67.7586895,68.0739423 L67.7586895,68.0739423 Z M96.3621501,51.5813527 C103.927594,51.1191274 114.260165,52.9680284 115.962635,56.9461157 C117.444323,60.4029704 105.448532,77.5643113 98.7122458,78.1199651 C91.7944277,78.6903707 76.5899467,66.0086806 75.6626647,62.1240217 C74.6372576,57.8263106 88.8016128,52.0484952 96.3621501,51.58627 L96.3621501,51.5813527 Z" id="Shape" fill="#FFFFFF"></path>
                <path d="M155.119448,44.7856583 C170.176741,21.7235697 142.80475,-6.23122212 119.514763,8.41246655 C94.5321174,-4.44132868 62.8426231,-2.44982636 39.7636044,13.5952899 C12.9263952,-2.71044271 -14.5240957,34.238072 8.8051419,55.303741 C-7.51796503,104.948698 31.7516917,158.837275 84.0376402,157.981667 C140.817717,159.240493 180.636874,95.4189902 155.119448,44.7856583 Z M151.640914,91.3474743 L151.640914,91.3474743 C150.41435,98.0989131 148.20163,104.511059 145.159752,110.426558 L145.159752,110.426558 C143.629001,113.391684 141.892187,116.243712 139.954217,118.962973 L139.954217,118.962973 C117.537542,151.338408 69.7113786,157.519442 39.9353233,131.743009 L39.9353233,131.743009 C37.3889775,129.599071 34.9947256,127.273193 32.782005,124.789961 L32.782005,124.789961 C28.3173139,119.779243 24.5738421,114.109608 21.7134961,107.953162 L21.7134961,107.953162 C16.9053672,97.6760261 14.7417092,86.0368015 15.4580223,74.6827796 L15.4580223,74.6827796 C15.6738975,71.1718348 16.1547103,67.7002282 16.8955547,64.2827119 L16.8955547,64.2827119 C17.0770861,63.4664418 17.2586175,62.655089 17.4646802,61.8437362 C23.7692165,61.2585788 30.3877531,57.6837092 32.8703176,52.028826 C20.4967451,54.998869 6.21954607,44.2840948 11.1650501,30.4419243 C14.1284275,22.4611632 24.5787484,17.7799034 32.4581923,20.6466833 C38.7185723,22.1415393 44.6257021,34.0561322 44.758171,36.2885818 C47.4615169,32.5907799 49.6006436,24.850966 48.9137681,19.7664884 C75.1426018,3.75087593 107.808441,8.66816561 130.539115,27.4964678 C131.765679,23.8035833 132.805805,18.5814216 131.019928,14.7705221 C147.603067,12.7937717 155.359854,32.8120579 143.113844,43.5956742 C145.557159,48.0310695 147.83366,52.7270812 149.354599,57.5656942 L149.354599,57.5656942 C152.892008,68.4034007 153.691728,80.1262193 151.64582,91.342557 L151.640914,91.3474743 Z" id="Shape" fill="#F37626"></path>
                <path d="M95.8518997,44.5988013 C127.722925,44.5004555 110.531412,54.9742825 145.34619,47.8589644 C144.938971,47.0230251 143.56522,44.4611172 143.108938,43.6005915 C155.359854,32.8120579 147.593254,12.7937717 131.015022,14.7754394 C132.800898,18.5814216 131.760772,23.8183351 130.534209,27.5013851 C107.808441,8.66816561 75.1180705,3.76071051 48.9088618,19.7714057 C49.6006436,24.8362141 47.4517044,32.6153664 44.7532647,36.293499 L44.7532647,36.293499 C44.5864521,34.0167939 38.7136661,22.1513739 32.4483798,20.6516006 C24.5689359,17.7848207 14.1235212,22.4611632 11.1552376,30.4468416 C6.20973356,44.2791775 20.4918388,55.0087036 32.8605051,52.0337433 L32.8605051,52.0337433 C30.3779406,57.6886264 23.759404,61.263496 17.4548676,61.8486535 C17.248805,62.6600063 17.0672736,63.4713591 16.8857422,64.2876292 C16.8857422,64.2876292 63.8042488,59.3260839 65.3595313,58.5245657 C70.7465982,55.7315452 75.9864774,46.1575821 95.8518997,44.6037186 L95.8518997,44.5988013 Z" id="Path" fill="#FDCC99"></path>
                <path d="M48.5703303,137.943711 C74.9218203,154.451053 111.718725,149.730455 133.105086,127.140426 L48.5703303,137.943711 Z" id="Path" fill="#FDCC99"></path>
                <path d="M32.7770988,124.789961 C34.9947256,127.27811 37.3840712,129.603988 39.9304171,131.743009 L139.94931,118.962973 C141.887281,116.248629 143.624095,113.391684 145.154846,110.426558 L32.7770988,124.789961 L32.7770988,124.789961 Z" id="Path" fill="#FDCC99"></path>
                <path d="M149.349693,57.5706115 C149.349693,57.5706115 127.575738,59.1392269 125.068642,61.2438269 C101.121216,95.0157724 97.3924635,91.3818953 67.7586895,68.0739423 C65.2515938,66.9921385 15.453116,74.6876969 15.4482098,74.6876969 C14.7318967,86.0368015 16.9004609,97.6809434 21.7036836,107.958079 L151.636007,91.3523916 C151.734132,90.8213243 155.09001,74.4074114 149.344787,57.5755288 L149.349693,57.5706115 Z" id="Path" fill="#FDCC99"></path>
                <path d="M98.717152,78.1101305 C105.453439,77.5544768 117.44923,60.3931358 115.967541,56.9362811 C114.260165,52.9631111 103.927594,51.1092929 96.3670564,51.5715181 C88.806519,52.0337433 74.6421638,57.8115587 75.6675709,62.1092699 C76.5948529,65.9939287 91.799334,78.6756188 98.717152,78.1052132 L98.717152,78.1101305 Z" id="Path" fill="#F37626"></path>
            </g>
        </g>
    </g>
</svg>